<?xml version="1.0" encoding="UTF-8"?>
<!DOCTYPE svg PUBLIC "-//W3C//DTD SVG 1.1//EN" "http://www.w3.org/Graphics/SVG/1.1/DTD/svg11.dtd">
<!-- Creator: CorelDRAW -->
<svg xmlns="http://www.w3.org/2000/svg" xml:space="preserve" width="162mm" height="33mm" version="1.1" style="shape-rendering:geometricPrecision; text-rendering:geometricPrecision; image-rendering:optimizeQuality; fill-rule:evenodd; clip-rule:evenodd"
viewBox="0 0 16200 3300"
 xmlns:xlink="http://www.w3.org/1999/xlink"
 xmlns:xodm="http://www.corel.com/coreldraw/odm/2003">
 <defs>
  <style type="text/css">
   <![CDATA[
    .str7 {stroke:#004990;stroke-miterlimit:22.9256}
    .str6 {stroke:#1A5A99;stroke-miterlimit:22.9256}
    .str5 {stroke:#346AA2;stroke-miterlimit:22.9256}
    .str4 {stroke:#4E7BAB;stroke-miterlimit:22.9256}
    .str3 {stroke:#678BB4;stroke-miterlimit:22.9256}
    .str2 {stroke:#819CBD;stroke-miterlimit:22.9256}
    .str1 {stroke:#9BACC6;stroke-miterlimit:22.9256}
    .str0 {stroke:#B5BDCF;stroke-miterlimit:22.9256}
    .fil7 {fill:#004990;fill-rule:nonzero}
    .fil6 {fill:#1A5A99;fill-rule:nonzero}
    .fil5 {fill:#346AA2;fill-rule:nonzero}
    .fil4 {fill:#4E7BAB;fill-rule:nonzero}
    .fil3 {fill:#678BB4;fill-rule:nonzero}
    .fil2 {fill:#819CBD;fill-rule:nonzero}
    .fil1 {fill:#9BACC6;fill-rule:nonzero}
    .fil0 {fill:#B5BDCF;fill-rule:nonzero}
   ]]>
  </style>
 </defs>
 <g id="Слой_x0020_1">
  <metadata id="CorelCorpID_0Corel-Layer"/>
  <g id="_2047295358672">
   <g id="logo-group">
    <g id="logo-center">
     <g id="slogan">
      <path id="path97055" class="fil7 str0" d="M4035.37 2537.57c83.26,0 141.82,20.11 175.68,60.33 33.87,40.21 50.8,109.36 50.8,207.43 0,98.78 -16.93,168.27 -50.8,208.49 -33.86,39.51 -92.42,59.27 -175.68,59.27 -83.96,0 -143.23,-19.76 -177.8,-59.27 -33.87,-40.22 -50.8,-109.71 -50.8,-208.49 0,-98.07 16.93,-167.22 50.8,-207.43 34.57,-40.22 93.84,-60.33 177.8,-60.33zm142.88 87.84c-26.81,-33.16 -74.44,-49.74 -142.88,-49.74 -68.44,0 -116.42,16.58 -143.93,49.74 -26.81,33.16 -40.22,93.14 -40.22,179.92 0,86.78 13.41,147.11 40.22,180.97 27.52,33.16 75.49,49.75 143.93,49.75 68.44,0 116.07,-16.59 142.88,-49.75 26.81,-33.86 40.21,-94.19 40.21,-180.97 0,-86.78 -13.4,-146.76 -40.21,-179.92z"/>
      <polygon id="path97057" class="fil7 str0" points="5005.59,2550.27 5005.59,3060.39 4963.27,3060.39 4963.27,2805.33 4635.18,2805.33 4635.18,3060.39 4592.85,3060.39 4592.85,2550.27 4635.18,2550.27 4635.18,2771.46 4963.27,2771.46 4963.27,2550.27 "/>
      <path id="path97059" class="fil7 str0" d="M5744.9 2550.27l0 510.12 -41.27 0 0 -475.19 -149.23 0c-23.99,0 -41.98,5.99 -53.97,17.99 -11.29,11.29 -18.35,29.28 -21.17,53.97 -0.71,3.53 -2.82,20.11 -6.35,49.74 -2.82,29.64 -4.94,49.04 -6.35,58.21 -0.71,8.47 -3.18,25.05 -7.41,49.74 -3.53,24.7 -7.06,43.4 -10.58,56.1 -2.82,12.7 -7.06,27.86 -12.7,45.5 -4.94,16.94 -10.59,32.11 -16.94,45.51 -26.1,57.86 -67.38,92.43 -123.82,103.72l-5.29 -33.87c43.74,-16.93 74.43,-45.15 92.07,-84.66 9.17,-19.05 17.29,-43.75 24.34,-74.09 7.76,-31.04 13.06,-56.8 15.88,-77.26 2.82,-21.16 6,-49.03 9.52,-83.6 4.24,-35.28 6.71,-55.39 7.41,-60.33 4.23,-34.57 15.17,-59.97 32.81,-76.2 17.64,-16.93 44.1,-25.4 79.38,-25.4l193.67 0z"/>
      <path id="path97061" class="fil7 str0" d="M6097.56 2591.55l-4.23 -31.75c107.24,-14.82 188.73,-22.23 244.47,-22.23 100.19,0 150.28,49.39 150.28,148.17l0 374.65 -32.81 0 -7.41 -94.19c-24.69,24.69 -59.61,47.97 -104.77,69.85 -44.45,21.16 -88.55,31.75 -132.29,31.75 -43.04,0 -76.91,-11.29 -101.6,-33.87 -23.99,-23.28 -35.98,-56.09 -35.98,-98.43l0 -63.5c0,-38.8 10.93,-68.79 32.8,-89.95 21.87,-21.17 53.27,-31.75 94.2,-31.75l245.53 0 0 -64.56c0,-73.38 -37.75,-110.07 -113.24,-110.07 -61.39,0 -139.7,5.29 -234.95,15.88zm17.99 283.63l0 57.15c0,62.79 33.16,94.9 99.48,96.31 35.28,0.7 74.79,-8.12 118.54,-26.46 44.45,-19.05 81.84,-42.69 112.18,-70.91l0 -147.11 -241.3 3.18c-59.27,1.41 -88.9,30.69 -88.9,87.84z"/>
      <path id="path97063" class="fil7 str0" d="M7156.12 2322.73l35.99 0c0.7,39.51 -12.35,71.61 -39.16,96.31 -26.11,24.69 -61.74,37.04 -106.89,37.04 -45.86,0 -82.55,-12.35 -110.07,-37.04 -26.81,-24.7 -39.87,-56.8 -39.16,-96.31l35.98 0c0,33.16 10.23,59.27 30.7,78.32 20.46,18.34 47.97,27.51 82.55,27.51 33.16,0 59.61,-9.17 79.37,-27.51 20.46,-19.05 30.69,-45.16 30.69,-78.32zm111.13 737.66l-39.16 0 0 -396.88 0 -58.21 -1.06 0c-6.35,10.59 -16.93,26.46 -31.75,47.63l-317.5 407.46 -35.98 0 0 -510.12 40.21 0 0 393.7c0,26.81 -0.35,47.27 -1.05,61.38l1.05 0c7.76,-12.7 19.76,-29.28 35.99,-49.74l313.27 -405.34 35.98 0 0 510.12z"/>
      <polygon id="path97065" class="fil7 str0" points="8037.96,2550.27 8037.96,3060.39 7995.63,3060.39 7995.63,2805.33 7667.54,2805.33 7667.54,3060.39 7625.21,3060.39 7625.21,2550.27 7667.54,2550.27 7667.54,2771.46 7995.63,2771.46 7995.63,2550.27 "/>
      <polygon id="path97067" class="fil7 str0" points="8713.76,2811.68 8385.68,2811.68 8385.68,2776.75 8713.76,2776.75 "/>
      <path id="path97069" class="fil7 str0" d="M9453.39 2283.57l10.58 31.75c-17.64,11.99 -36.33,22.58 -56.09,31.75 -19.75,8.47 -35.28,14.46 -46.57,17.99 -10.58,3.53 -27.16,8.47 -49.74,14.82 -21.87,5.64 -35.98,9.17 -42.33,10.58 -63.5,18.35 -107.24,45.16 -131.23,80.44 -23.99,35.27 -38.81,83.96 -44.45,146.05 -2.12,16.93 -3.88,41.27 -5.3,73.02l1.06 0c4.94,-16.23 10.94,-30.69 17.99,-43.39 7.06,-12.7 17.64,-25.75 31.75,-39.16 14.82,-13.41 35.28,-23.64 61.39,-30.69 26.1,-7.76 56.8,-11.64 92.07,-11.64 74.09,0 125.94,19.05 155.58,57.15 29.63,37.39 44.45,102.3 44.45,194.73 0,41.63 -2.82,76.91 -8.47,105.83 -5.64,28.22 -16.23,54.68 -31.75,79.38 -15.52,23.99 -38.1,41.98 -67.73,53.97 -29.63,11.29 -66.68,16.94 -111.13,16.94 -40.21,0 -74.08,-5.29 -101.6,-15.88 -27.51,-10.58 -49.03,-23.99 -64.56,-40.21 -15.52,-16.94 -27.51,-40.57 -35.98,-70.91 -7.76,-30.34 -12.7,-59.27 -14.82,-86.79 -2.11,-28.22 -3.17,-65.26 -3.17,-111.12 0,-64.21 2.12,-115.36 6.35,-153.46 4.23,-38.1 13.41,-74.08 27.52,-107.95 14.11,-33.87 34.57,-60.68 61.38,-80.43 27.52,-19.76 63.5,-36.34 107.95,-49.74 10.58,-2.83 26.46,-6.71 47.62,-11.65 21.17,-5.64 37.4,-10.23 48.69,-13.75 11.29,-3.53 26.1,-9.18 44.45,-16.94 19.05,-8.47 37.75,-18.7 56.09,-30.69zm-169.33 318.56c-74.09,0 -123.83,17.64 -149.23,52.92 -25.4,34.57 -38.1,87.48 -38.1,158.75 0,82.55 13.41,140.05 40.22,172.5 26.81,32.46 73.02,48.69 138.64,48.69 64.21,0 109.01,-15.88 134.41,-47.63 25.4,-32.45 38.1,-90.66 38.1,-174.62 0,-79.73 -12,-134.76 -35.99,-165.1 -23.28,-30.34 -65.96,-45.51 -128.05,-45.51z"/>
      <path id="path97071" class="fil7 str0" d="M10235.38 2550.27l-226.48 554.57c-27.52,67.73 -57.86,115 -91.02,141.81 -40.92,29.64 -91.37,39.87 -151.34,30.7l3.18 -27.52c50.8,2.82 92.42,-7.41 124.88,-30.69 26.81,-23.29 52.21,-64.21 76.2,-122.77l13.76 -35.98 -12.7 0c-9.17,0 -15.53,-4.24 -19.05,-12.7l-203.2 -497.42 45.51 0 168.28 418.04 22.23 57.15 13.74 0 23.28 -58.21 167.22 -416.98 45.51 0z"/>
      <polygon id="path97073" class="fil7 str0" points="10902.05,2587.31 10703.08,2587.31 10703.08,3060.39 10659.69,3060.39 10659.69,2587.31 10460.72,2587.31 10460.72,2550.27 10902.05,2550.27 "/>
      <path id="path97075" class="fil7 str0" d="M11618.38 3060.39l-39.16 0 0 -396.88 0 -58.21 -1.05 0c-6.35,10.59 -16.94,26.46 -31.74,47.63l-317.5 407.46 -35.99 0 0 -510.12 40.22 0 0 393.7c0,26.81 -0.35,47.27 -1.06,61.38l1.06 0c7.76,-12.7 19.75,-29.28 35.98,-49.74l313.26 -405.34 35.98 0 0 510.12z"/>
      <path id="path97077" class="fil7 str0" d="M12165.79 2793.69l0 1.06c26.1,2.11 49.39,9.17 69.85,21.16 20.46,12 39.51,31.05 57.15,57.15 17.64,26.11 32.1,50.8 43.39,74.09 11.29,22.57 26.46,55.38 45.51,98.42 2.82,6.35 4.94,11.29 6.35,14.82l-45.51 0c-39.51,-86.79 -67.38,-141.82 -83.61,-165.1 -35.98,-53.62 -81.84,-81.49 -137.58,-83.61 -2.12,0 -4.23,0 -6.35,0l-99.48 0c2.11,19.75 3.17,39.16 3.17,58.21l0 190.5 -42.33 0 0 -510.12 42.33 0 0 166.16c0,20.46 -1.06,40.92 -3.17,61.38l97.36 0c21.17,0 40.92,-4.23 59.27,-12.7 18.34,-8.47 33.87,-18.34 46.57,-29.63 12.7,-11.29 25.75,-27.52 39.15,-48.68 14.11,-21.88 25.05,-40.93 32.81,-57.15 8.47,-16.94 19.4,-39.52 32.81,-67.74 2.12,-4.94 3.88,-8.82 5.29,-11.64l44.45 0c-14.82,33.16 -25.75,57.5 -32.81,73.03 -7.05,15.52 -17.99,35.98 -32.8,61.38 -14.82,25.4 -28.23,44.1 -40.22,56.09 -11.29,11.99 -26.11,23.28 -44.45,33.87 -17.64,10.58 -36.69,16.93 -57.15,19.05z"/>
     </g>
     <g id="title">
      <polygon id="path97080" class="fil0 str0" points="35.98,1723.98 35.98,1688.26 178.86,1652.55 178.86,128.55 35.98,92.83 35.98,57.11 714.64,57.11 714.64,92.83 571.76,128.55 571.76,1652.55 714.64,1688.26 714.64,1723.98 "/>
      <path id="path97082" class="fil1 str1" d="M1804.71 461.92l0 1154.91 190.5 71.43 0 35.72 -452.43 0 0 -35.72 190.49 -71.43 0 -1476.37 -166.68 -47.62 0 -35.72 250.02 -0.01c84.14,0 150.02,15.08 197.65,45.25 47.62,30.16 92.87,70.64 135.73,121.44l762 892.97 0 -952.5 -190.5 -71.44 0 -35.72 452.44 0 0 35.72 -190.5 71.44 0 1595.43 -71.44 0 -1107.28 -1297.78z"/>
      <path id="path97084" class="fil2 str2" d="M4312.19 1688.26l142.88 -35.71 0 -1535.91 -273.84 0c0,96.84 -26.2,189.71 -78.59,278.61 -22.22,36.51 -47.62,66.67 -76.2,90.49l-71.43 0 0 -428.63 1393.02 0 0 428.62 -71.44 0.01c-30.16,-23.81 -56.36,-53.98 -78.58,-90.49 -50.8,-85.73 -76.2,-178.59 -76.2,-278.61l-273.83 0 0 1535.91 142.87 35.71 -0.01 35.72 -678.65 0 0 -35.72z"/>
      <polygon id="path97086" class="fil3 str3" points="6187.52,1723.98 6187.52,1688.26 6330.4,1652.55 6330.4,128.55 6187.52,92.83 6187.52,57.11 6866.18,57.11 6866.18,92.83 6723.3,128.55 6723.3,1652.55 6866.18,1688.26 6866.18,1723.98 "/>
      <path id="path97088" class="fil4 str4" d="M8348.6 1759.7c-112.7,0 -218.27,-25.4 -316.7,-76.2 -44.45,-22.22 -81.75,-48.41 -111.92,-78.58 -22.22,36.52 -50,69.05 -83.34,97.63 -28.57,20.63 -44.45,31.75 -47.62,33.33l-59.54 0 0 -452.43 95.25 0.01c23.82,77.78 57.15,147.63 100.02,209.55 96.84,138.11 222.25,207.15 376.22,207.15 90.49,0 162.72,-26.98 216.7,-80.95 53.97,-53.97 80.96,-126.2 80.96,-216.69 0,-52.39 -15.87,-99.22 -47.62,-140.5 -30.17,-41.27 -68.27,-77.78 -114.3,-109.53 -46.04,-31.75 -110.34,-71.44 -192.88,-119.07 -104.77,-58.73 -189.7,-111.91 -254.79,-159.54 -65.09,-47.62 -120.65,-107.16 -166.69,-178.59 -46.04,-73.03 -69.05,-158.75 -69.05,-257.18 0,-77.79 21.43,-147.64 64.29,-209.55 44.45,-63.5 110.33,-113.5 197.64,-150.02 87.32,-38.1 194.47,-57.15 321.46,-57.15 92.08,0 184.15,26.2 276.23,78.58 34.92,19.05 69.85,44.45 104.77,76.2 26.99,-41.27 54.77,-73.81 83.35,-97.63 28.57,-20.64 44.45,-31.75 47.62,-33.33l59.53 0 0 452.44 -95.25 -0.01c-20.64,-76.2 -51.59,-145.25 -92.87,-207.17 -38.1,-60.32 -85.72,-110.33 -142.87,-150.01 -55.56,-39.69 -119.86,-59.54 -192.88,-59.54 -61.91,0 -115.1,24.61 -159.54,73.82 -44.45,49.21 -66.67,111.92 -66.67,188.12 0,58.74 16.67,111.92 50.01,159.55 34.92,46.03 76.98,86.51 126.19,121.44 50.8,34.92 119.06,76.99 204.79,126.21 100.01,57.15 180.97,107.95 242.89,152.4 61.91,44.45 114.3,100.01 157.16,166.68 42.86,65.09 64.29,140.5 64.29,226.22 0,85.73 -24.6,164.31 -73.82,235.75 -49.21,69.85 -123.03,125.41 -221.45,166.67 -98.43,41.28 -218.28,61.92 -359.57,61.92z"/>
      <polygon id="path97090" class="fil5 str5" points="9845.17,1723.98 9845.17,1688.26 9988.05,1652.55 9988.05,128.55 9845.17,92.83 9845.17,57.11 10523.83,57.11 10523.83,92.83 10380.95,128.55 10380.95,866.74 10892.92,866.74 10892.92,128.55 10750.04,92.83 10750.04,57.11 11428.7,57.11 11428.7,92.83 11285.82,128.55 11285.82,1652.55 11428.7,1688.26 11428.7,1723.98 10750.04,1723.98 10750.04,1688.26 10892.92,1652.55 10892.92,926.27 10380.95,926.27 10380.95,1652.55 10523.83,1688.26 10523.83,1723.98 "/>
      <path id="path97092" class="fil6 str6" d="M13091.76 1759.7c-155.57,0 -292.1,-33.34 -409.57,-100.01 -115.89,-68.26 -205.58,-167.48 -269.08,-297.65 -63.5,-130.18 -95.25,-287.34 -95.25,-471.49 0,-184.15 31.75,-341.31 95.25,-471.49 63.5,-130.17 153.19,-228.6 269.08,-295.27 117.47,-68.26 254,-102.4 409.57,-102.4 155.58,0 291.31,34.13 407.2,102.4 117.47,66.67 207.96,165.1 271.46,295.27 63.5,130.18 95.25,287.34 95.25,471.49 0,184.15 -31.75,341.31 -95.25,471.49 -63.5,130.17 -153.99,229.39 -271.46,297.65 -115.89,66.67 -251.62,100.01 -407.2,100.01zm0 -47.63c61.91,0 119.06,-26.19 171.45,-78.57 53.98,-52.39 98.43,-139.7 133.35,-261.94 34.93,-122.24 52.39,-282.57 52.39,-481.01 0,-198.44 -17.46,-358.78 -52.39,-481.01 -34.92,-122.24 -79.37,-209.55 -133.35,-261.94 -52.39,-52.39 -109.54,-78.58 -171.45,-78.58 -61.91,0 -119.85,26.19 -173.83,78.58 -52.39,52.39 -96.04,139.7 -130.97,261.94 -34.92,122.24 -52.39,282.57 -52.39,481.01 0,198.44 17.47,358.77 52.39,481.01 34.93,122.24 78.58,209.55 130.97,261.94 53.98,52.38 111.92,78.57 173.83,78.57z"/>
      <path id="path97094" class="fil7 str7" d="M14753.9 1688.26l142.87 -35.71 0 -1524 -142.87 -35.72 0 -35.72 666.74 0c263.53,0 452.44,43.66 566.74,130.97 114.3,85.73 171.45,212.73 171.45,381 0,168.28 -57.15,296.07 -171.45,383.38 -114.3,85.73 -303.21,128.59 -566.74,128.59l-130.97 0 0 571.5 142.88 35.71 0 35.72 -678.65 0 0 -35.72zm666.74 -666.74c100.01,0 180.18,-38.1 240.51,-114.3 61.91,-76.2 92.87,-188.91 92.87,-338.14 0,-147.64 -30.96,-259.56 -92.87,-335.76 -60.33,-77.78 -140.49,-116.68 -240.51,-116.68l-130.97 0 0 904.87 130.97 0.01z"/>
     </g>
    </g>
   </g>
  </g>
 </g>
</svg>
