<?xml version="1.0" encoding="UTF-8"?>
<!DOCTYPE svg PUBLIC "-//W3C//DTD SVG 1.1//EN" "http://www.w3.org/Graphics/SVG/1.1/DTD/svg11.dtd">
<!-- Creator: CorelDRAW -->
<svg xmlns="http://www.w3.org/2000/svg" xml:space="preserve" width="162mm" height="33mm" version="1.1" style="shape-rendering:geometricPrecision; text-rendering:geometricPrecision; image-rendering:optimizeQuality; fill-rule:evenodd; clip-rule:evenodd"
viewBox="0 0 16200 1300"
 xmlns:xlink="http://www.w3.org/1999/xlink"
 xmlns:xodm="http://www.corel.com/coreldraw/odm/2003">
 <defs>
  <style type="text/css">
   <![CDATA[
    .str7 {stroke:#004990;stroke-miterlimit:22.9256}
    .str6 {stroke:#1A5A99;stroke-miterlimit:22.9256}
    .str5 {stroke:#346AA2;stroke-miterlimit:22.9256}
    .str4 {stroke:#4E7BAB;stroke-miterlimit:22.9256}
    .str3 {stroke:#678BB4;stroke-miterlimit:22.9256}
    .str2 {stroke:#819CBD;stroke-miterlimit:22.9256}
    .str1 {stroke:#9BACC6;stroke-miterlimit:22.9256}
    .str0 {stroke:#B5BDCF;stroke-miterlimit:22.9256}
    .fil7 {fill:#004990;fill-rule:nonzero}
    .fil6 {fill:#1A5A99;fill-rule:nonzero}
    .fil5 {fill:#346AA2;fill-rule:nonzero}
    .fil4 {fill:#4E7BAB;fill-rule:nonzero}
    .fil3 {fill:#678BB4;fill-rule:nonzero}
    .fil2 {fill:#819CBD;fill-rule:nonzero}
    .fil1 {fill:#9BACC6;fill-rule:nonzero}
    .fil0 {fill:#B5BDCF;fill-rule:nonzero}
   ]]>
  </style>
 </defs>
 <g id="Слой_x0020_1">
  <metadata id="CorelCorpID_0Corel-Layer"/>
  <g id="_2047295358672">
   <g id="logo-group">
    <g id="logo-center">
     <g id="title">
      <polygon id="path97080" class="fil0 str0" points="35.98,1723.98 35.98,1688.26 178.86,1652.55 178.86,128.55 35.98,92.83 35.98,57.11 714.64,57.11 714.64,92.83 571.76,128.55 571.76,1652.55 714.64,1688.26 714.64,1723.98 "/>
      <path id="path97082" class="fil1 str1" d="M1804.71 461.92l0 1154.91 190.5 71.43 0 35.72 -452.43 0 0 -35.72 190.49 -71.43 0 -1476.37 -166.68 -47.62 0 -35.72 250.02 -0.01c84.14,0 150.02,15.08 197.65,45.25 47.62,30.16 92.87,70.64 135.73,121.44l762 892.97 0 -952.5 -190.5 -71.44 0 -35.72 452.44 0 0 35.72 -190.5 71.44 0 1595.43 -71.44 0 -1107.28 -1297.78z"/>
      <path id="path97084" class="fil2 str2" d="M4312.19 1688.26l142.88 -35.71 0 -1535.91 -273.84 0c0,96.84 -26.2,189.71 -78.59,278.61 -22.22,36.51 -47.62,66.67 -76.2,90.49l-71.43 0 0 -428.63 1393.02 0 0 428.62 -71.44 0.01c-30.16,-23.81 -56.36,-53.98 -78.58,-90.49 -50.8,-85.73 -76.2,-178.59 -76.2,-278.61l-273.83 0 0 1535.91 142.87 35.71 -0.01 35.72 -678.65 0 0 -35.72z"/>
      <polygon id="path97086" class="fil3 str3" points="6187.52,1723.98 6187.52,1688.26 6330.4,1652.55 6330.4,128.55 6187.52,92.83 6187.52,57.11 6866.18,57.11 6866.18,92.83 6723.3,128.55 6723.3,1652.55 6866.18,1688.26 6866.18,1723.98 "/>
      <path id="path97088" class="fil4 str4" d="M8348.6 1759.7c-112.7,0 -218.27,-25.4 -316.7,-76.2 -44.45,-22.22 -81.75,-48.41 -111.92,-78.58 -22.22,36.52 -50,69.05 -83.34,97.63 -28.57,20.63 -44.45,31.75 -47.62,33.33l-59.54 0 0 -452.43 95.25 0.01c23.82,77.78 57.15,147.63 100.02,209.55 96.84,138.11 222.25,207.15 376.22,207.15 90.49,0 162.72,-26.98 216.7,-80.95 53.97,-53.97 80.96,-126.2 80.96,-216.69 0,-52.39 -15.87,-99.22 -47.62,-140.5 -30.17,-41.27 -68.27,-77.78 -114.3,-109.53 -46.04,-31.75 -110.34,-71.44 -192.88,-119.07 -104.77,-58.73 -189.7,-111.91 -254.79,-159.54 -65.09,-47.62 -120.65,-107.16 -166.69,-178.59 -46.04,-73.03 -69.05,-158.75 -69.05,-257.18 0,-77.79 21.43,-147.64 64.29,-209.55 44.45,-63.5 110.33,-113.5 197.64,-150.02 87.32,-38.1 194.47,-57.15 321.46,-57.15 92.08,0 184.15,26.2 276.23,78.58 34.92,19.05 69.85,44.45 104.77,76.2 26.99,-41.27 54.77,-73.81 83.35,-97.63 28.57,-20.64 44.45,-31.75 47.62,-33.33l59.53 0 0 452.44 -95.25 -0.01c-20.64,-76.2 -51.59,-145.25 -92.87,-207.17 -38.1,-60.32 -85.72,-110.33 -142.87,-150.01 -55.56,-39.69 -119.86,-59.54 -192.88,-59.54 -61.91,0 -115.1,24.61 -159.54,73.82 -44.45,49.21 -66.67,111.92 -66.67,188.12 0,58.74 16.67,111.92 50.01,159.55 34.92,46.03 76.98,86.51 126.19,121.44 50.8,34.92 119.06,76.99 204.79,126.21 100.01,57.15 180.97,107.95 242.89,152.4 61.91,44.45 114.3,100.01 157.16,166.68 42.86,65.09 64.29,140.5 64.29,226.22 0,85.73 -24.6,164.31 -73.82,235.75 -49.21,69.85 -123.03,125.41 -221.45,166.67 -98.43,41.28 -218.28,61.92 -359.57,61.92z"/>
      <polygon id="path97090" class="fil5 str5" points="9845.17,1723.98 9845.17,1688.26 9988.05,1652.55 9988.05,128.55 9845.17,92.83 9845.17,57.11 10523.83,57.11 10523.83,92.83 10380.95,128.55 10380.95,866.74 10892.92,866.74 10892.92,128.55 10750.04,92.83 10750.04,57.11 11428.7,57.11 11428.7,92.83 11285.82,128.55 11285.82,1652.55 11428.7,1688.26 11428.7,1723.98 10750.04,1723.98 10750.04,1688.26 10892.92,1652.55 10892.92,926.27 10380.95,926.27 10380.95,1652.55 10523.83,1688.26 10523.83,1723.98 "/>
      <path id="path97092" class="fil6 str6" d="M13091.76 1759.7c-155.57,0 -292.1,-33.34 -409.57,-100.01 -115.89,-68.26 -205.58,-167.48 -269.08,-297.65 -63.5,-130.18 -95.25,-287.34 -95.25,-471.49 0,-184.15 31.75,-341.31 95.25,-471.49 63.5,-130.17 153.19,-228.6 269.08,-295.27 117.47,-68.26 254,-102.4 409.57,-102.4 155.58,0 291.31,34.13 407.2,102.4 117.47,66.67 207.96,165.1 271.46,295.27 63.5,130.18 95.25,287.34 95.25,471.49 0,184.15 -31.75,341.31 -95.25,471.49 -63.5,130.17 -153.99,229.39 -271.46,297.65 -115.89,66.67 -251.62,100.01 -407.2,100.01zm0 -47.63c61.91,0 119.06,-26.19 171.45,-78.57 53.98,-52.39 98.43,-139.7 133.35,-261.94 34.93,-122.24 52.39,-282.57 52.39,-481.01 0,-198.44 -17.46,-358.78 -52.39,-481.01 -34.92,-122.24 -79.37,-209.55 -133.35,-261.94 -52.39,-52.39 -109.54,-78.58 -171.45,-78.58 -61.91,0 -119.85,26.19 -173.83,78.58 -52.39,52.39 -96.04,139.7 -130.97,261.94 -34.92,122.24 -52.39,282.57 -52.39,481.01 0,198.44 17.47,358.77 52.39,481.01 34.93,122.24 78.58,209.55 130.97,261.94 53.98,52.38 111.92,78.57 173.83,78.57z"/>
      <path id="path97094" class="fil7 str7" d="M14753.9 1688.26l142.87 -35.71 0 -1524 -142.87 -35.72 0 -35.72 666.74 0c263.53,0 452.44,43.66 566.74,130.97 114.3,85.73 171.45,212.73 171.45,381 0,168.28 -57.15,296.07 -171.45,383.38 -114.3,85.73 -303.21,128.59 -566.74,128.59l-130.97 0 0 571.5 142.88 35.71 0 35.72 -678.65 0 0 -35.72zm666.74 -666.74c100.01,0 180.18,-38.1 240.51,-114.3 61.91,-76.2 92.87,-188.91 92.87,-338.14 0,-147.64 -30.96,-259.56 -92.87,-335.76 -60.33,-77.78 -140.49,-116.68 -240.51,-116.68l-130.97 0 0 904.87 130.97 0.01z"/>
     </g>
    </g>
   </g>
  </g>
 </g>
</svg>
