<?xml version="1.0" encoding="utf-8"?>
<!-- Generator: Adobe Illustrator 24.3.0, SVG Export Plug-In . SVG Version: 6.00 Build 0)  -->
<svg version="1.1" id="Слой_1" xmlns:svgjs="http://svgjs.com/svgjs"
	 xmlns="http://www.w3.org/2000/svg" xmlns:xlink="http://www.w3.org/1999/xlink" x="0px" y="0px" viewBox="0 0 792 165"
	 style="enable-background:new 0 0 792 165;" xml:space="preserve">
<style type="text/css">
	.st0{fill:url(#SVGID_1_);}
	.st1{fill:#FFFFFF;}
	.st2{fill:url(#SVGID_2_);}
	.st3{fill:url(#SVGID_3_);}
	.st4{fill:url(#SVGID_4_);}
</style>
<g>
	<path d="M442.8,116.5c0.4,0.7,1.1,1.4,2.2,2.2c2,2.1,3.6,3.2,4.8,3.2c1.1,0,2.4-1.1,4-3.2c0.8-1.1,1.4-2.2,1.8-3.3s0.7-1.9,0.8-2.3
		c0-0.9,0.5-3.4,1.5-7.3s2-6.3,2.9-7.3c2.4-4.1,4.3-7,5.8-8.6c3.7-4.1,7.4-7.4,11.1-9.8s9.2-5.7,16.6-10c1.6-0.8,3.2-1.5,4.8-2
		c1.6-0.5,3.1-0.9,4.6-1c2.8-0.1,4.7-0.3,5.8-0.5c1.1-0.2,1.6-0.8,1.6-1.7c0-0.1-0.1-0.4-0.2-0.7c-0.1-0.3-0.4-0.5-0.8-0.5
		c-0.3-0.1-0.7-0.5-1.3-1c-0.6-0.5-1-1.3-1.1-2.2c-0.5-1.2-1.5-2.1-2.9-2.7s-3-0.9-4.9-0.9c-2.9,0-5.4,0.5-7.6,1.6
		c-0.5,0.3-1.5,0.7-3,1.2s-2.6,1.1-3.6,1.6c-2.1,1.1-6,3.8-11.7,8.2c-5.6,4.4-9.2,7.8-10.7,10.4c-0.3,0.1-0.5,0.3-0.8,0.5
		s-0.5,0.3-0.8,0.3c-0.1,0-0.2-0.1-0.2-0.4c0-0.5,0.6-2.3,1.9-5.2c1.3-2.9,2.2-4.9,2.7-6c2.4-5.1,4.1-8.9,5.1-11.5s1.5-4.5,1.5-5.9
		c0-1.5-0.4-2.5-1.2-3c-1.2-1.2-2.7-1.8-4.4-1.8c-1.2,0-2.3,0.3-3.4,1c-2.7,3.9-6.1,11.1-10.4,21.7s-6.6,17.6-7,20.9l-1,4
		c-1.6,6-2.6,11.2-3,15.8c-0.1,0.8-0.2,1.8-0.2,3C442.2,114.8,442.4,115.8,442.8,116.5z M542.9,121.9c0.9,0.5,2.2,0.8,3.8,0.8
		c2.9-0.1,5.5-0.6,7.9-1.5c2.3-0.9,4.9-2.3,7.7-4.3c4.4-2.7,7.9-5.2,10.6-7.5c2.6-2.3,5.5-5.7,8.6-10.1c7-10.1,10.6-19.5,10.6-28.1
		c0-5.2-0.7-9-2.1-11.5c-1.4-2.5-3.9-4.5-7.5-6.1c-1.2-1.2-2.2-2-2.9-2.5s-1.6-0.7-2.5-0.7s-2.7,0.3-5.4,1c-3,0.7-5.8,1.7-8.4,3
		c-2.5,1.3-5.4,3.4-8.6,6.2c-2.3,1.9-4.8,4.6-7.7,8.2c-2.8,3.6-5,6.6-6.5,9c-2,3-3.7,6.4-5,10.1s-1.9,6-1.6,7.1
		c0.3,1.5,0,2.2-0.8,2.2c-0.1,0.3-0.3,0.5-0.6,0.7s-0.4,0.4-0.4,0.6s0.3,0.6,0.8,1.1c0,0.3,0,0.9,0.1,1.8s-0.1,1.9-0.5,2.8
		c-0.1,0.4-0.2,1.1-0.2,2c0,3.9,2.2,8.1,6.6,12.8C540.6,120.3,541.9,121.3,542.9,121.9z M573.5,91.4c-1.9,3.2-4.5,6.6-7.7,10.2
		c-6.8,7.2-12.4,10.8-16.8,10.8c-1.7,0-3.1-0.6-4.1-1.8c-1-1.2-1.5-2.8-1.5-4.8c0-2.7,0.7-5.4,2-8.2c3.2-7.2,6.3-13.2,9.4-18
		c3.1-4.8,6.5-8.9,10.4-12.3c3.2-2.7,6.3-4,9.2-4c1.3,0,2.6,0.3,4,1c1.1,0.5,1.6,2.8,1.6,6.8c0,3.2-0.3,5.9-1,8.2
		C577.2,84.1,575.4,88.2,573.5,91.4z M628.4,122.4c2.3,1.8,4.6,3.2,7,4.1c2.1,0.3,4.1,0.4,6,0.4c3.3,0,6.7-0.2,10.2-0.7
		s5.9-1,7.4-1.7c2.4-1.1,4.2-2.2,5.4-3.4s1.8-2.6,1.8-4.2c0-2.1-0.9-4.5-2.6-7.2c-0.5-1.7-2.2-3.9-4.9-6.5s-7.5-6.5-14.5-11.7
		c-0.8-0.7-1.6-1.3-2.4-1.9c-0.8-0.6-1.4-1.2-1.9-1.7s-0.7-1.1-0.7-1.6c0-0.1,0.1-0.7,0.4-1.8c0-0.9,0.2-2.1,0.5-3.4
		s0.6-2.1,0.9-2.4c7-10.2,10.6-14.7,10.6-13.6c0.5,0,0.9-0.1,1.1-0.4c0.2-0.3,0.5-0.8,0.9-1.6c2.5-2.4,9-5.9,19.3-10.6
		c1.1,0,1.7,0.1,1.9,0.2c0.2,0.1,0.3,0.6,0.3,1.4c0,1.1-0.9,3.2-2.8,6.3c-1.9,3.1-3.2,4.7-4,4.7c-0.1,0.1-0.4,0.4-0.7,0.9
		s-0.5,0.9-0.5,1.3c0,0.8,0.2,1.4,0.5,1.9s0.6,0.7,0.7,0.7c0.4,0,0.7,0.3,1,0.8s0.5,0.9,0.8,1.2c0.4,1.5,1.3,2.2,2.8,2.2
		c1.9,0,4.3-1.1,7.2-3.2c0.9-0.8,1.7-1.6,2.2-2.5s0.8-1.6,0.8-2.1s0.1-0.9,0.4-1c0.3-0.1,0.5-0.2,0.6-0.2c1.2,0,2.1-1.4,2.7-4.1
		c0.6-2.7,0.9-5.6,0.9-8.5c-0.5-1.6-1.6-3.4-3.3-5.4s-3.4-3.5-5.1-4.6c-1.5-0.9-3.3-1.4-5.4-1.4c-2.3,0-4.5,0.5-6.8,1.4
		c-3.5,1.1-8.1,3.5-14.1,7.4c-5.9,3.9-10.7,7.5-14.5,11c-2.6,2.6-5,6.1-7.1,10.4c-2.1,4.2-3.1,7.6-3.1,10c0,2.3,0.6,4.7,1.7,7.3
		c1.1,2.6,2.2,3.9,3.1,3.9v1c-0.4,0.7,0.2,1.8,1.8,3.3s4.3,3.9,8.2,7.1c1.5,0.7,2.8,1.4,4,2.3s1.8,1.6,1.8,2.1
		c0.3,0,0.9,0.2,1.8,0.7c0.9,0.5,1.5,0.7,1.8,0.7c1.1,1.1,1.6,1.7,1.6,2c0,0.1-0.2,0.2-0.6,0.2c-0.4,0.9-2.5,1.8-6.2,2.5
		s-7,1.1-10,1.1c-4.9-0.5-8.5-0.8-10.8-0.8c-1.1,0-1.8,0.1-2.2,0.3c-0.4,0.2-0.6,0.6-0.6,1.3v1.4C624.6,119,626.1,120.6,628.4,122.4
		z M710.6,116c0.9,0.9,1.5,1.7,1.9,2.5c2.1,1.3,4.5,2,7.2,2c8.4,0,19.8-7.2,34.3-21.7c1.1-1.1,2.2-2.3,3.4-3.8s2.2-2.7,3-3.8
		c0.1,0.8,0.6,2.3,1.5,4.4s1.6,3.6,2.1,4.4c5.7,11,12.5,16.5,20.3,16.5c1.1,0,1.9-0.1,2.4-0.2c2.4-0.5,3.6-2.1,3.6-4.8
		c0-2.4-1.5-3.9-4.4-4.4c-2-0.3-4-1.1-6-2.4s-3.3-2.7-4-4.2c-2.9-4.7-4.4-9.5-4.4-14.6c0-2.9,0.6-6.2,1.8-9.8l3.6-10l-7.4-6.6
		c-5.4-4.9-8.5-7.8-9.2-8.6c-1.7-1.3-3.8-2-6.2-2c-3.5,0-6.8,1.1-10.2,3.4c-2.8,1.7-6.4,4.9-10.8,9.5c-4.4,4.6-6.6,7.5-6.6,8.7v1.2
		c-0.5,0-1,0.2-1.4,0.7s-0.6,1-0.6,1.5c-0.4,0.3-1.2,1.4-2.5,3.4s-2.3,3.4-3.1,4.2c-3.3,6-6,11.5-8.1,16.6s-3.1,8.7-3.1,10.9
		c0,0.9,0.1,1.5,0.4,1.8c0.7,0.8,1,1.9,1,3.4C709.3,114.6,709.8,115.1,710.6,116z M721.8,107.9c-1.4,0.3-2.1,0.1-2.1-0.6l1.8-4.5
		c0.9-2.3,2-4.6,3.2-6.9c4.9-9.4,10.4-17.6,16.4-24.6s10.4-10.5,13.2-10.5c1.2,0,2.5,0.6,4,1.9s2.8,3.3,4.2,6.1L758,76
		c-5.1,7.3-13.3,15.9-24.7,25.7c-2.1,1.7-4.2,3.1-6.3,4.2C724.9,107,723.2,107.6,721.8,107.9z"/>
</g>
<g id="Слой_2_1_">
	
		<linearGradient id="SVGID_1_" gradientUnits="userSpaceOnUse" x1="198" y1="81.3" x2="253.6113" y2="81.3" gradientTransform="matrix(1 0 0 -1 0 166)">
		<stop  offset="0" style="stop-color:#EF4C4E"/>
		<stop  offset="1" style="stop-color:#C31618"/>
	</linearGradient>
	<path class="st0" d="M219.9,121.9c4.7,0,8.6-1.5,12-4.4c2.8-1.7,5.3-3.7,7.5-5.9s3.6-4.1,4.3-5.8c0.7-1.7,0.4-2.5-0.8-2.5
		c-0.4-0.3-0.9-0.7-1.6-1.3c-0.6-0.6-1.3-0.9-1.8-0.9c-0.4,0-0.8,0.1-1.3,0.3c-0.5,0.2-1,0.6-1.5,1.2s-0.9,1-1.2,1.3l-1.8,1.8
		c-0.7,0.7-1.4,1.2-2.2,1.6l-3.8,2.2c-2,1.1-3.8,1.6-5.4,1.6c-1.3,0-3.5-0.3-6.6-1c-4.5-0.7-6.8-4.4-6.8-11.2c0-1.7,0.1-3.1,0.2-4
		c0.5-4.3,1.1-7.2,1.7-8.8c0.6-1.6,1.5-2.4,2.7-2.4c0.7,0,1.6,0.2,2.8,0.6c2.5,1.7,5.8,2.6,10,2.6c3.1,0,5.8-0.4,8.2-1.2
		c5.1-2.5,9.4-5.8,13-10c3.6-4.1,5.6-7.8,6.2-11c0-4.4-1.7-8.2-5-11.6c-1.1-1.5-2.4-2.6-3.9-3.3s-3.8-1.3-6.7-1.7
		c-1.1-0.1-2.1-0.3-3-0.4c-0.9-0.1-1.9-0.2-2.8-0.2c-1.7,0-3.7,0.7-5.8,2c-4.1,1.6-8.3,4.5-12.6,8.7c-4.2,4.2-7.8,8.9-10.7,14.3
		c-2.9,5.3-4.5,10.4-4.9,15.3c-0.3,4-0.4,6.7-0.4,8c0,3.9,0.4,7.1,1.2,9.8s2.1,5,3.8,7.2c2,2.8,4.5,5,7.5,6.6
		C213.4,121.1,216.6,121.9,219.9,121.9z"/>
	<path class="st1" d="M241.2,69c-2.3,2.4-4.6,4.1-6.9,5c-2,0.8-4.5,1.2-7.6,1.2c-4.5,0-7.1-0.6-7.8-1.8c-0.4-0.4,0.3-1.8,2.2-4.2
		c1.9-2.4,4.1-4.8,6.6-7.1c2.5-2.3,4.7-3.8,6.6-4.3c0.8-0.3,2-0.4,3.6-0.4c2.1,0,3.8,0.5,5,1.6s1.8,2.4,1.8,4
		C244.7,64.6,243.5,66.6,241.2,69z"/>
	
		<linearGradient id="SVGID_2_" gradientUnits="userSpaceOnUse" x1="277.4999" y1="100.8" x2="320.6537" y2="100.8" gradientTransform="matrix(1 0 0 -1 0 166)">
		<stop  offset="0" style="stop-color:#EF4C4E"/>
		<stop  offset="1" style="stop-color:#C31618"/>
	</linearGradient>
	<path class="st2" d="M283.5,122.8c0.8,0,1.4-0.1,1.8-0.2c0.8-0.4,1.3-1.1,1.5-1.9c0.2-0.8,0.3-2.6,0.3-5.6c0-2.5,0.4-5.5,1.3-9
		c0.9-3.5,2.5-9.1,4.7-16.6l1.6-5.1c1.8-5,2.8-8.1,2.8-9.3c0-0.3,0.1-0.6,0.2-1.1s0.4-0.8,0.7-0.8c0.6-0.6,0.9-1.5,0.9-2.8
		c0-0.4,1.1-3.1,3.1-7.8c2-4.8,3.5-8,4.5-9.9c0.4-1.1,0.8-2.3,1.2-3.4c0.4-1.1,0.7-1.8,0.7-2.2c0-0.4,0.6-1.7,1.8-4
		c1.7-3.6,2.6-5.7,2.8-6.3c0.7-1.7,1.3-3,1.9-4.1c0.6-1.1,1.1-2.1,1.4-2.9c1.8-4,3.1-6.6,3.5-7.9s0.7-2.8,0.7-4.6s-0.1-3.1-0.4-4
		s-0.8-1.8-1.6-2.6L316,7.6c-1.3,0-2.2,0.3-2.8,0.9c-1.8,0-2.8,1-2.8,2.8c0,1.4-2.4,8.4-7,21.1s-7.9,20.9-9.9,24.5
		c0,0.4-0.2,0.9-0.4,1.5s-0.4,1.1-0.4,1.3c0,0.4-0.2,1-0.4,1.9c-0.3,1-0.4,1.6-0.4,1.9c-0.4,0.4-0.9,1.2-1.3,2.4
		c-0.4,1.1-0.6,2.2-0.6,3.3c0,1-0.2,1.8-0.5,2.6c-0.4,0.8-0.8,1.1-1.2,1.1c-0.6,1.1-1.9,4.7-4,10.5c-2,5.8-3.3,9.8-3.6,12.1
		c0,1.5-0.6,4-1.9,7.4c-0.7,3.5-1.1,6.6-1.1,9.3c0,3.3,0.5,5.8,1.6,7.7C280.1,121.8,281.5,122.8,283.5,122.8z"/>
	
		<linearGradient id="SVGID_3_" gradientUnits="userSpaceOnUse" x1="331.2404" y1="82" x2="413.5741" y2="82" gradientTransform="matrix(1 0 0 -1 0 166)">
		<stop  offset="0" style="stop-color:#EF4C4E"/>
		<stop  offset="1" style="stop-color:#C31618"/>
	</linearGradient>
	<path class="st3" d="M333.9,115.3c0.9,0.9,1.5,1.7,1.9,2.5c2.1,1.3,4.5,2,7.2,2c8.4,0,19.8-7.2,34.3-21.7c1.1-1.1,2.2-2.3,3.4-3.8
		c1.2-1.5,2.2-2.7,3-3.8c0.1,0.8,0.6,2.3,1.5,4.4s1.6,3.6,2.1,4.4c5.7,11,12.5,16.5,20.3,16.5c1.1,0,1.9-0.1,2.4-0.2
		c2.4-0.5,3.6-2.1,3.6-4.8c0-2.4-1.5-3.9-4.4-4.4c-2-0.3-4-1.1-6-2.4s-3.3-2.7-4-4.2c-2.9-4.7-4.4-9.5-4.4-14.6
		c0-2.9,0.6-6.2,1.8-9.8l3.6-10l-7.4-6.6c-5.5-4.9-8.5-7.8-9.2-8.6c-1.7-1.3-3.8-2-6.2-2c-3.5,0-6.9,1.1-10.2,3.4
		c-2.8,1.7-6.4,4.9-10.8,9.5s-6.6,7.5-6.6,8.7V71c-0.5,0-1,0.2-1.4,0.7s-0.6,1-0.6,1.5c-0.4,0.3-1.2,1.4-2.5,3.4s-2.3,3.4-3.1,4.2
		c-3.3,6-6,11.5-8.1,16.6s-3.1,8.7-3.1,10.9c0,0.9,0.1,1.5,0.4,1.8c0.7,0.8,1,1.9,1,3.4C332.6,113.9,333.1,114.4,333.9,115.3z"/>
	<path class="st1" d="M345.1,107.2c-1.4,0.3-2.1,0.1-2.1-0.6l1.8-4.5c0.9-2.3,2-4.6,3.2-6.9c4.9-9.4,10.4-17.6,16.3-24.6
		c6-7,10.4-10.5,13.2-10.5c1.2,0,2.5,0.6,4,1.9s2.9,3.3,4.2,6.1l-4.4,7.2c-5,7.3-13.3,15.9-24.7,25.7c-2.1,1.7-4.2,3.1-6.3,4.2
		C348.2,106.3,346.5,106.9,345.1,107.2z"/>
</g>
<g>
	
		<linearGradient id="SVGID_4_" gradientUnits="userSpaceOnUse" x1="315.0879" y1="-420.608" x2="375.3092" y2="-480.8293" gradientTransform="matrix(2.5847 0 0 2.5847 -804.2141 1236.2089)">
		<stop  offset="5.000000e-02" style="stop-color:#F45355"/>
		<stop  offset="0.95" style="stop-color:#BB0C0F"/>
	</linearGradient>
	<path class="st4" d="M171,41.7c3.5,5.1,5.2,10.8,5.2,17s-2.7,13.3-8,21.2c-5.1,7.5-12.6,15-22.4,22.4c-13.2,10-28.8,17.5-47,22.7
		c-18.2,5.2-36,7.8-53.4,7.8s-30-2.7-37.6-8c-2-1.5-3.1-1.8-3.1-0.8c0,0.3,0.3,1,1,2.3c5.9,11.5,22.8,17.2,50.8,17.2
		c8,0,17-0.8,26.8-2.5c32.6-5.5,57.5-17.2,74.9-35.3c14.7-15.3,22-31.4,22-48.1c0-20.6-10-35.1-29.9-43.5c-10.1-4.3-23-6.5-38.7-6.5
		s-32.5,2.7-50.3,7.9c-17.8,5.3-31.7,11.9-41.7,19.8C12.2,41.2,8.5,48.8,8.5,58c0,5.6,1.6,10.3,4.8,14c0.6,0.6,1.3,0.8,1.9,0.4
		c0.6-0.4,0.3-1.4-1-3.1s-1.9-3.7-1.9-6.1c0-4,2.5-8.2,7.5-12.6c7.7-7.3,18.9-13.7,33.7-19.2C73,24.1,93,20.5,113.3,20.5
		c5.5,0,11.1,0.4,16.9,1.3C150.2,24.7,163.8,31.3,171,41.7z M102,30c-2.4,0-13,13.1-31.6,39.4c-18.6,26.2-28,42.8-28,49.7
		c0,1.3,0.6,1.9,1.7,1.9c0.5,0,1-0.5,1.3-1.5c3.5-9.2,11.4-22.8,23.9-40.9s24.1-33.1,35-45.1c1-1,1.5-2,1.5-2.9
		c0-0.4-0.4-0.6-1.3-0.6H102z"/>
</g>
</svg>
